<svg width="51" height="51" viewBox="0 0 51 51" fill="none" xmlns="http://www.w3.org/2000/svg">
<path d="M35.7096 17.5856C36.977 17.5856 38.0046 16.5581 38.0046 15.2906C38.0046 14.0231 36.977 12.9956 35.7096 12.9956C34.4421 12.9956 33.4146 14.0231 33.4146 15.2906C33.4146 16.5581 34.4421 17.5856 35.7096 17.5856Z" fill="white"/>
<path d="M25.5 15.6792C23.5577 15.6792 21.6589 16.2552 20.0439 17.3343C18.4289 18.4134 17.1702 19.9472 16.4269 21.7417C15.6836 23.5362 15.4891 25.5108 15.868 27.4158C16.247 29.3208 17.1823 31.0707 18.5557 32.4442C19.9292 33.8176 21.6791 34.7529 23.5841 35.1319C25.4891 35.5108 27.4637 35.3163 29.2582 34.573C31.0527 33.8297 32.5865 32.571 33.6656 30.956C34.7447 29.341 35.3207 27.4422 35.3207 25.4999C35.3207 22.8953 34.286 20.3973 32.4443 18.5556C30.6026 16.7139 28.1046 15.6792 25.5 15.6792ZM25.5 31.8749C24.2392 31.8749 23.0066 31.501 21.9583 30.8005C20.9099 30.1 20.0928 29.1044 19.6103 27.9395C19.1278 26.7746 19.0015 25.4928 19.2475 24.2562C19.4935 23.0196 20.1006 21.8836 20.9922 20.9921C21.8838 20.1005 23.0197 19.4934 24.2563 19.2474C25.4929 19.0014 26.7747 19.1276 27.9396 19.6102C29.1045 20.0927 30.1001 20.9098 30.8006 21.9581C31.5011 23.0065 31.875 24.239 31.875 25.4999C31.875 27.1906 31.2034 28.8121 30.0078 30.0077C28.8123 31.2032 27.1908 31.8749 25.5 31.8749Z" fill="white"/>
<path d="M25.5 9.82069C30.6064 9.82069 31.212 9.83981 33.2281 9.93225C34.4407 9.94665 35.6418 10.1693 36.779 10.5905C37.604 10.9087 38.3533 11.3962 38.9785 12.0215C39.6038 12.6467 40.0913 13.396 40.4095 14.221C40.8307 15.3582 41.0534 16.5593 41.0677 17.7719C41.1602 19.788 41.1793 20.3936 41.1793 25.5016C41.1793 30.6096 41.1602 31.212 41.0677 33.2281C41.0534 34.4407 40.8307 35.6418 40.4095 36.779C40.0913 37.604 39.6038 38.3533 38.9785 38.9785C38.3533 39.6038 37.604 40.0913 36.779 40.4095C35.6418 40.8307 34.4407 41.0534 33.2281 41.0677C31.212 41.1602 30.6064 41.1793 25.5 41.1793C20.3936 41.1793 19.788 41.1602 17.7719 41.0677C16.5593 41.0534 15.3582 40.8307 14.221 40.4095C13.396 40.0913 12.6467 39.6038 12.0215 38.9785C11.3962 38.3533 10.9087 37.604 10.5905 36.779C10.1693 35.6418 9.94665 34.4407 9.93225 33.2281C9.83981 31.212 9.82069 30.6064 9.82069 25.5C9.82069 20.3936 9.83981 19.788 9.93225 17.7719C9.94665 16.5593 10.1693 15.3582 10.5905 14.221C10.9087 13.396 11.3962 12.6467 12.0215 12.0215C12.6467 11.3962 13.396 10.9087 14.221 10.5905C15.3582 10.1693 16.5593 9.94665 17.7719 9.93225C19.788 9.83981 20.3936 9.82069 25.5 9.82069ZM25.5 6.375C20.306 6.375 19.6541 6.39731 17.6141 6.48975C16.028 6.52178 14.4588 6.82248 12.9731 7.37906C11.7025 7.87041 10.5485 8.62183 9.58516 9.58516C8.62183 10.5485 7.87041 11.7025 7.37906 12.9731C6.8223 14.4593 6.5216 16.029 6.48975 17.6157C6.39731 19.6557 6.375 20.3044 6.375 25.5C6.375 30.6956 6.39731 31.3459 6.48975 33.3859C6.52178 34.972 6.82248 36.5413 7.37906 38.0269C7.87041 39.2975 8.62183 40.4515 9.58516 41.4148C10.5485 42.3782 11.7025 43.1296 12.9731 43.6209C14.4593 44.1777 16.029 44.4784 17.6157 44.5103C19.6557 44.6027 20.306 44.625 25.5 44.625C30.694 44.625 31.3459 44.6027 33.3859 44.5103C34.9726 44.4784 36.5423 44.1777 38.0285 43.6209C39.2991 43.1296 40.4531 42.3782 41.4164 41.4148C42.3798 40.4515 43.1312 39.2975 43.6225 38.0269C44.1787 36.5407 44.4789 34.9709 44.5103 33.3843C44.6027 31.3443 44.625 30.6956 44.625 25.5C44.625 20.3044 44.6027 19.6541 44.5103 17.6141C44.4782 16.028 44.1775 14.4588 43.6209 12.9731C43.1296 11.7025 42.3782 10.5485 41.4148 9.58516C40.4515 8.62183 39.2975 7.87041 38.0269 7.37906C36.5407 6.82284 34.9709 6.52268 33.3843 6.49134C31.3443 6.39572 30.6956 6.375 25.5 6.375Z" fill="white"/>
</svg>
