<svg width="47" height="47" viewBox="0 0 47 47" fill="none" xmlns="http://www.w3.org/2000/svg">
<path d="M17.625 22.0312V32.3125C17.625 32.8968 17.3929 33.4572 16.9797 33.8703C16.5666 34.2835 16.0062 34.5156 15.4219 34.5156C14.8376 34.5156 14.2772 34.2835 13.864 33.8703C13.4509 33.4572 13.2188 32.8968 13.2188 32.3125V22.0312C13.2188 21.4469 13.4509 20.8866 13.864 20.4734C14.2772 20.0602 14.8376 19.8281 15.4219 19.8281C16.0062 19.8281 16.5666 20.0602 16.9797 20.4734C17.3929 20.8866 17.625 21.4469 17.625 22.0312ZM22.7656 34.5156C23.3499 34.5156 23.9103 34.2835 24.3235 33.8703C24.7366 33.4572 24.9688 32.8968 24.9688 32.3125V27.1719C24.9688 26.3928 25.2782 25.6456 25.8291 25.0947C26.38 24.5439 27.1272 24.2344 27.9062 24.2344C28.6853 24.2344 29.4325 24.5439 29.9834 25.0947C30.5343 25.6456 30.8438 26.3928 30.8438 27.1719V32.3125C30.8438 32.8968 31.0759 33.4572 31.489 33.8703C31.9022 34.2835 32.4626 34.5156 33.0469 34.5156C33.6312 34.5156 34.1916 34.2835 34.6047 33.8703C35.0179 33.4572 35.25 32.8968 35.25 32.3125V27.1719C35.2496 25.9078 34.923 24.6653 34.3017 23.5645C33.6803 22.4637 32.7854 21.5419 31.7035 20.8883C30.6216 20.2347 29.3892 19.8715 28.1258 19.8337C26.8623 19.7959 25.6105 20.0849 24.4914 20.6727C24.2077 20.3152 23.8201 20.0546 23.382 19.9269C22.9438 19.7993 22.4769 19.8108 22.0456 19.9599C21.6143 20.1091 21.24 20.3885 20.9743 20.7595C20.7086 21.1305 20.5647 21.5749 20.5625 22.0312V32.3125C20.5625 32.8968 20.7946 33.4572 21.2078 33.8703C21.6209 34.2835 22.1813 34.5156 22.7656 34.5156ZM42.5938 8.07812V38.9219C42.5889 39.8942 42.2005 40.8254 41.513 41.513C40.8254 42.2005 39.8942 42.5889 38.9219 42.5938H8.07812C7.10577 42.5889 6.17462 42.2005 5.48705 41.513C4.79948 40.8254 4.41108 39.8942 4.40625 38.9219V8.07812C4.41108 7.10577 4.79948 6.17462 5.48705 5.48705C6.17462 4.79948 7.10577 4.41108 8.07812 4.40625H38.9219C39.8942 4.41108 40.8254 4.79948 41.513 5.48705C42.2005 6.17462 42.5889 7.10577 42.5938 8.07812ZM38.1875 8.8125H8.8125V38.1875H38.1875V8.8125ZM15.4219 17.625C16.0029 17.625 16.5708 17.4527 17.0539 17.1299C17.5369 16.8072 17.9134 16.3484 18.1358 15.8116C18.3581 15.2749 18.4163 14.6842 18.3029 14.1144C18.1896 13.5446 17.9098 13.0212 17.499 12.6104C17.0882 12.1996 16.5648 11.9198 15.995 11.8064C15.4251 11.6931 14.8345 11.7513 14.2977 11.9736C13.761 12.1959 13.3022 12.5724 12.9794 13.0555C12.6567 13.5386 12.4844 14.1065 12.4844 14.6875C12.4844 15.4666 12.7939 16.2137 13.3447 16.7646C13.8956 17.3155 14.6428 17.625 15.4219 17.625Z" fill="white"/>
</svg>
